HIERARCHY
ROOT Hips
{
	OFFSET 0.000000 0.000000 0.000000
	CHANNELS 6 Xposition Yposition Zposition Zrotation Yrotation Xrotation 
	JOINT LHipJoint
	{
		OFFSET 0.000000 0.000000 0.000000
		CHANNELS 3 Zrotation Yrotation Xrotation
		JOINT LeftUpLeg
		{
			OFFSET 1.363060 -1.794630 0.839290
			CHANNELS 3 Zrotation Yrotation Xrotation
			JOINT LeftLeg
			{
				OFFSET 2.448110 -6.726130 0.000000
				CHANNELS 3 Zrotation Yrotation Xrotation
				JOINT LeftFoot
				{
					OFFSET 2.562200 -7.039590 0.000000
					CHANNELS 3 Zrotation Yrotation Xrotation
					JOINT LeftToeBase
					{
						OFFSET 0.157640 -0.433110 2.322550
						CHANNELS 3 Zrotation Yrotation Xrotation
						End Site
						{
							OFFSET 0.000000 0.000000 0.000000
						}
					}
				}
			}
		}
	}
	JOINT RHipJoint
	{
		OFFSET 0.000000 0.000000 0.000000
		CHANNELS 3 Zrotation Yrotation Xrotation
		JOINT RightUpLeg
		{
			OFFSET -1.305520 -1.794630 0.839290
			CHANNELS 3 Zrotation Yrotation Xrotation
			JOINT RightLeg
			{
				OFFSET -2.542530 -6.985550 0.000000
				CHANNELS 3 Zrotation Yrotation Xrotation
				JOINT RightFoot
				{
					OFFSET -2.568260 -7.056230 0.000000
					CHANNELS 3 Zrotation Yrotation Xrotation
					JOINT RightToeBase
					{
						OFFSET -0.164730 -0.452590 2.363150
						CHANNELS 3 Zrotation Yrotation Xrotation
						End Site
						{
							OFFSET 0.000000 0.000000 0.000000
						}
					}
				}
			}
		}
	}
}
MOTION
Frames: 16
Frame Time: 0.008333
-18.445642 14.139416 -0.491875 -96.663043 83.757710 -60.688272 -6.675638 -1.956853 0.663329 -13.954310 -4.889400 -97.009031 0.671583 6.454869 74.339128 2.560631 8.250943 -17.421932 -1.085700 -0.000000 -12.244500 12.304522 -3.390769 -3.712782 11.471474 -9.054971 -12.852830 1.690111 -2.790167 45.643253 0.265414 5.277770 -8.003052 -0.089900 0.000000 -88.427901
-18.220803 14.102330 -0.494135 -95.817774 83.637798 -59.919449 -6.654803 -1.931026 0.552585 -14.098788 -4.560590 -96.768516 0.798074 6.551142 75.895461 2.620176 8.327801 -18.733778 -1.347800 0.000001 -10.745300 12.478209 -3.425893 -3.619219 11.258731 -9.100049 -13.035206 1.348086 -2.887237 46.844163 0.251260 4.934119 -5.019662 0.112600 0.000001 -88.879900
-17.998987 14.069466 -0.496716 -94.837847 83.554612 -58.979646 -6.639720 -1.883546 0.456970 -14.258662 -4.274316 -96.475572 0.911926 6.636097 77.316196 2.699374 8.482531 -20.042988 -1.622800 0.000000 -9.790601 12.652723 -3.424849 -3.539629 11.045589 -9.180044 -13.440935 0.993623 -2.980607 48.267662 0.189866 4.456126 -2.005598 0.304900 0.000000 -88.422400
-17.780922 14.040876 -0.499724 -93.793121 83.499796 -57.938710 -6.633146 -1.823245 0.374469 -14.417858 -4.021335 -96.146334 1.016491 6.710980 78.611513 2.791746 8.699673 -21.303713 -1.904799 0.000000 -9.427200 12.818650 -3.387160 -3.475281 10.857095 -9.274458 -14.053409 0.644201 -3.066337 49.898772 0.080578 3.808255 0.850898 0.447600 -0.000000 -86.880500
-17.567117 14.016723 -0.503230 -92.744680 83.466915 -56.862729 -6.637057 -1.757846 0.301422 -14.567819 -3.789949 -95.789244 1.113171 6.777011 79.788901 2.890293 8.957722 -22.485836 -2.187500 -0.000000 -9.636600 12.969097 -3.315306 -3.429291 10.711115 -9.375203 -14.856705 0.314245 -3.145392 51.726420 -0.070503 2.960625 3.375407 0.499700 -0.000000 -84.262300
-17.357605 13.997207 -0.506656 -91.519053 83.462119 -55.582434 -6.649711 -1.676997 0.236120 -14.731293 -3.570577 -95.409912 1.200110 6.838102 80.848134 2.989745 9.236093 -23.573456 -2.465200 0.000000 -10.346800 13.105569 -3.204339 -3.403502 10.590049 -9.492272 -15.851993 0.009262 -3.218844 53.751706 -0.253529 1.899408 5.429608 0.431400 0.000000 -80.757500
-17.153378 13.982283 -0.510671 -90.300862 83.464074 -54.293862 -6.675818 -1.599649 0.170758 -14.883278 -3.338442 -95.006851 1.277330 6.894211 81.799175 3.083096 9.505045 -24.570539 -2.732100 0.000000 -11.427000 13.216991 -3.069180 -3.399809 10.535229 -9.601279 -17.003690 -0.261945 -3.295799 55.949203 -0.458536 0.598325 6.838958 0.224300 -0.000000 -76.522700
-16.954077 13.971967 -0.515160 -88.995538 83.468514 -52.911422 -6.715453 -1.522611 0.101053 -15.035574 -3.076384 -94.576942 1.342026 6.948189 82.643005 3.166803 9.744224 -25.489004 -2.984500 0.000000 -12.732600 13.303218 -2.913054 -3.417970 10.542793 -9.700575 -18.301466 -0.502066 -3.381979 58.307346 -0.676969 -0.929947 7.519240 -0.104300 -0.000000 -71.847500
-16.759830 13.966179 -0.520353 -87.592395 83.465660 -51.433979 -6.769947 -1.448969 0.021885 -15.189002 -2.765420 -94.114406 1.391908 7.001757 83.382639 3.238518 9.937001 -26.348570 -3.220500 0.000000 -14.111000 13.362411 -2.743127 -3.456272 10.619237 -9.779843 -19.728006 -0.715162 -3.483316 60.805098 -0.903641 -2.651207 7.427596 -0.506700 0.000000 -66.959200
-16.570596 13.964692 -0.526359 -86.053139 83.447756 -49.831305 -6.840171 -1.379440 -0.070574 -15.346963 -2.390769 -93.613255 1.424959 7.056526 84.020597 3.297768 10.074521 -27.169954 -3.440000 -0.000000 -15.427700 13.394178 -2.564457 -3.511346 10.764788 -9.829201 -21.270145 -0.906641 -3.603329 63.419363 -1.136081 -4.504036 6.570555 -0.909500 0.000000 -61.998500
-16.386044 13.967154 -0.533383 -84.397739 83.407672 -48.129053 -6.926070 -1.316962 -0.179334 -15.508542 -1.943111 -93.069029 1.440225 7.113061 84.562173 3.345663 10.155632 -27.973651 -3.644800 0.000000 -16.565000 13.399235 -2.382330 -3.578799 10.980562 -9.838528 -22.915521 -1.081067 -3.743883 66.119873 -1.374111 -6.413203 5.006384 -1.228900 0.000000 -57.109000
-16.205763 13.973254 -0.541168 -82.448977 83.347641 -46.151666 -7.027825 -1.251950 -0.303168 -15.692065 -1.419384 -92.482539 1.436981 7.173912 85.006432 3.384580 10.189230 -28.760932 -3.835300 0.000000 -17.543400 13.379045 -2.193946 -3.650868 11.245002 -9.799403 -24.664255 -1.243505 -3.901975 68.885365 -1.616030 -8.285331 2.808420 -1.382800 -0.000000 -52.084600
-16.029692 13.982414 -0.550108 -80.419669 83.260837 -44.114138 -7.142988 -1.195876 -0.444096 -15.881842 -0.822634 -91.851071 1.416911 7.236178 85.365713 3.416857 10.183727 -29.546217 -4.015500 0.000000 -18.269200 13.336246 -2.007613 -3.723956 11.567521 -9.706670 -26.503360 -1.394819 -4.078985 71.673403 -1.861453 -10.048881 0.111766 -1.318199 -0.000000 -47.030500
-15.856992 13.994104 -0.560015 -78.302296 83.150923 -42.006568 -7.268849 -1.146099 -0.599618 -16.082192 -0.161881 -91.180378 1.382069 7.299399 85.646518 3.445143 10.154597 -30.320840 -4.186600 0.000000 -18.811400 13.274341 -1.822260 -3.791637 11.934894 -9.557038 -28.433285 -1.537684 -4.271778 74.452341 -2.106800 -11.636404 -2.942322 -1.012400 -0.000000 -41.861700
-15.687587 14.007804 -0.570814 -76.192525 83.020168 -39.921757 -7.401319 -1.104355 -0.767576 -16.288400 0.550717 -90.476065 1.335686 7.361460 85.859543 3.471410 10.116575 -31.073806 -4.349800 -0.000000 -19.237200 13.197619 -1.638532 -3.849062 12.341678 -9.349511 -30.451508 -1.674238 -4.478084 77.186498 -2.346902 -13.002545 -6.193878 -0.482800 -0.000000 -36.576899
-15.520950 14.023005 -0.582425 -74.199795 82.871899 -37.966231 -7.535733 -1.072416 -0.945563 -16.492280 1.301466 -89.745174 1.281469 7.420038 86.016771 3.496629 10.081372 -31.791086 -4.505700 0.000000 -19.627000 13.110398 -1.456159 -3.892496 12.785116 -9.084369 -32.554128 -1.807505 -4.695210 79.840320 -2.575358 -14.124314 -9.473735 0.217500 0.000000 -31.291200
